# Blender v2.80 (sub 75) OBJ File: ''
# www.blender.org
mtllib Dice.mtl
o Cube
v 0.854975 0.854975 -1.000000
v 0.854975 1.000000 -0.854975
v 1.000000 0.854975 -0.854975
v 0.854975 0.927392 -0.980625
v 0.927392 0.854975 -0.980625
v 0.924328 0.924328 -0.961805
v 0.927392 0.980625 -0.854975
v 0.854975 0.980625 -0.927392
v 0.924328 0.961805 -0.924328
v 0.980625 0.854975 -0.927392
v 0.980625 0.927392 -0.854975
v 0.961805 0.924328 -0.924328
v 0.854975 -1.000000 -0.854975
v 0.854975 -0.854975 -1.000000
v 1.000000 -0.854975 -0.854975
v 0.854975 -0.980625 -0.927392
v 0.927392 -0.980625 -0.854975
v 0.924328 -0.961805 -0.924328
v 0.927392 -0.854975 -0.980625
v 0.854975 -0.927392 -0.980625
v 0.924328 -0.924328 -0.961805
v 0.980625 -0.927392 -0.854975
v 0.980625 -0.854975 -0.927392
v 0.961805 -0.924328 -0.924328
v 1.000000 0.854975 0.854975
v 0.854975 1.000000 0.854975
v 0.854975 0.854975 1.000000
v 0.980625 0.927392 0.854975
v 0.980625 0.854975 0.927392
v 0.961805 0.924328 0.924328
v 0.854975 0.980625 0.927392
v 0.927392 0.980625 0.854975
v 0.924328 0.961805 0.924328
v 0.927392 0.854975 0.980625
v 0.854975 0.927392 0.980625
v 0.924328 0.924328 0.961805
v 1.000000 -0.854975 0.854975
v 0.854975 -0.854975 1.000000
v 0.854975 -1.000000 0.854975
v 0.980625 -0.854975 0.927392
v 0.980625 -0.927392 0.854975
v 0.961805 -0.924328 0.924328
v 0.854975 -0.927392 0.980625
v 0.927392 -0.854975 0.980625
v 0.924328 -0.924328 0.961805
v 0.927392 -0.980625 0.854975
v 0.854975 -0.980625 0.927392
v 0.924328 -0.961805 0.924328
v -0.854975 0.854975 -1.000000
v -1.000000 0.854975 -0.854975
v -0.854975 1.000000 -0.854975
v -0.927392 0.854975 -0.980625
v -0.854975 0.927392 -0.980625
v -0.924328 0.924328 -0.961805
v -0.980625 0.927392 -0.854975
v -0.980625 0.854975 -0.927392
v -0.961805 0.924328 -0.924328
v -0.854975 0.980625 -0.927392
v -0.927392 0.980625 -0.854975
v -0.924328 0.961805 -0.924328
v -1.000000 -0.854975 -0.854975
v -0.854975 -0.854975 -1.000000
v -0.854975 -1.000000 -0.854975
v -0.980625 -0.854975 -0.927392
v -0.980625 -0.927392 -0.854975
v -0.961805 -0.924328 -0.924328
v -0.854975 -0.927392 -0.980625
v -0.927392 -0.854975 -0.980625
v -0.924328 -0.924328 -0.961805
v -0.927392 -0.980625 -0.854975
v -0.854975 -0.980625 -0.927392
v -0.924328 -0.961805 -0.924328
v -1.000000 0.854975 0.854975
v -0.854975 0.854975 1.000000
v -0.854975 1.000000 0.854975
v -0.980625 0.854975 0.927392
v -0.980625 0.927392 0.854975
v -0.961805 0.924328 0.924328
v -0.854975 0.927392 0.980625
v -0.927392 0.854975 0.980625
v -0.924328 0.924328 0.961805
v -0.927392 0.980625 0.854975
v -0.854975 0.980625 0.927392
v -0.924328 0.961805 0.924328
v -0.854975 -1.000000 0.854975
v -0.854975 -0.854975 1.000000
v -1.000000 -0.854975 0.854975
v -0.854975 -0.980625 0.927392
v -0.927392 -0.980625 0.854975
v -0.924328 -0.961805 0.924328
v -0.927392 -0.854975 0.980625
v -0.854975 -0.927392 0.980625
v -0.924328 -0.924328 0.961805
v -0.980625 -0.927392 0.854975
v -0.980625 -0.854975 0.927392
v -0.961805 -0.924328 0.924328
vt 0.236558 0.548000
vt 0.450302 0.548000
vt 0.450302 0.761744
vt 0.236558 0.761744
vt 0.228807 0.781662
vt 0.442551 0.781661
vt 0.442551 0.995405
vt 0.228807 0.995405
vt 0.684565 0.781243
vt 0.898309 0.781243
vt 0.898309 0.994987
vt 0.684565 0.994987
vt 0.007129 0.543645
vt 0.220873 0.543645
vt 0.220873 0.757388
vt 0.007129 0.757388
vt 0.002060 0.781662
vt 0.215804 0.781661
vt 0.215804 0.995405
vt 0.002060 0.995405
vt 0.920158 0.176413
vt 0.921928 0.176413
vt 0.921853 0.178109
vt 0.920158 0.178184
vt 0.923704 0.176413
vt 0.923704 0.178109
vt 0.829437 0.036787
vt 0.827667 0.036787
vt 0.827742 0.035091
vt 0.829437 0.035016
vt 0.825891 0.036787
vt 0.825891 0.035091
vt 0.822345 0.134600
vt 0.822345 0.132829
vt 0.824041 0.132904
vt 0.824116 0.134600
vt 0.822345 0.131053
vt 0.824041 0.131053
vt 0.921853 0.179960
vt 0.871251 0.183506
vt 0.871251 0.181735
vt 0.872947 0.181810
vt 0.873022 0.183506
vt 0.871251 0.179960
vt 0.872947 0.179960
vt 0.878344 0.176413
vt 0.878344 0.178184
vt 0.876648 0.178109
vt 0.876573 0.176413
vt 0.878344 0.179960
vt 0.876648 0.179960
vt 0.780531 0.134600
vt 0.778760 0.134600
vt 0.778835 0.132904
vt 0.780531 0.132829
vt 0.776985 0.134600
vt 0.776985 0.132904
vt 0.874797 0.181810
vt 0.822345 0.176413
vt 0.824116 0.176413
vt 0.824041 0.178109
vt 0.822345 0.178184
vt 0.825891 0.176413
vt 0.825891 0.178109
vt 0.829437 0.078601
vt 0.829437 0.080371
vt 0.827742 0.080297
vt 0.827667 0.078601
vt 0.829437 0.082147
vt 0.827742 0.082147
vt 0.871251 0.085693
vt 0.871251 0.083922
vt 0.872947 0.083997
vt 0.873022 0.085693
vt 0.871251 0.082147
vt 0.872947 0.082147
vt 0.824041 0.179960
vt 0.780531 0.176413
vt 0.780531 0.178184
vt 0.778835 0.178109
vt 0.778760 0.176413
vt 0.780531 0.179960
vt 0.778835 0.179960
vt 0.829437 0.085693
vt 0.827667 0.085693
vt 0.827742 0.083997
vt 0.829437 0.083922
vt 0.825891 0.085693
vt 0.825891 0.083997
vt 0.871251 0.225320
vt 0.873022 0.225320
vt 0.872947 0.227016
vt 0.871251 0.227091
vt 0.874797 0.225320
vt 0.874797 0.227016
vt 0.776985 0.178109
vt 0.920158 0.134600
vt 0.920158 0.132829
vt 0.921853 0.132904
vt 0.921928 0.134600
vt 0.920158 0.131053
vt 0.921853 0.131053
vt 0.871251 0.176413
vt 0.873022 0.176413
vt 0.872947 0.178109
vt 0.871251 0.178184
vt 0.874797 0.176413
vt 0.874797 0.178109
vt 0.871251 0.036787
vt 0.871251 0.035016
vt 0.872947 0.035091
vt 0.873022 0.036787
vt 0.871251 0.033241
vt 0.872947 0.033241
vt 0.923704 0.132904
vt 0.829437 0.176413
vt 0.829437 0.178184
vt 0.827742 0.178109
vt 0.827667 0.176413
vt 0.829437 0.179960
vt 0.827742 0.179960
vt 0.878344 0.134600
vt 0.876573 0.134600
vt 0.876648 0.132904
vt 0.878344 0.132829
vt 0.874797 0.134600
vt 0.874797 0.132904
vt 0.829437 0.183506
vt 0.827667 0.183506
vt 0.827742 0.181810
vt 0.829437 0.181735
vt 0.825891 0.183506
vt 0.825891 0.181810
vt 0.825891 0.178109
vt 0.871251 0.134600
vt 0.871251 0.132829
vt 0.872947 0.132904
vt 0.873022 0.134600
vt 0.871251 0.129278
vt 0.872947 0.129203
vt 0.871251 0.127507
vt 0.873022 0.127507
vt 0.874797 0.127507
vt 0.874797 0.129203
vt 0.871251 0.078601
vt 0.873022 0.078601
vt 0.872947 0.080297
vt 0.871251 0.080371
vt 0.874797 0.078601
vt 0.874797 0.080297
vt 0.872947 0.131053
vt 0.874797 0.132904
vt 0.829437 0.225320
vt 0.829437 0.227091
vt 0.827742 0.227016
vt 0.827667 0.225320
vt 0.829437 0.228866
vt 0.827742 0.228866
vt 0.829437 0.127507
vt 0.829437 0.129278
vt 0.827742 0.129203
vt 0.827667 0.127507
vt 0.829437 0.132829
vt 0.827742 0.132904
vt 0.829437 0.134600
vt 0.827667 0.134600
vt 0.825891 0.134600
vt 0.825891 0.132904
vt 0.825891 0.227016
vt 0.825891 0.225320
vt 0.829437 0.179960
vt 0.780531 0.131053
vt 0.829437 0.082147
vt 0.878344 0.131053
vt 0.871251 0.082147
vt 0.825891 0.078601
vt 0.871251 0.228866
vt 0.874797 0.036787
vt 0.829437 0.033241
vt 0.874797 0.183506
vt 0.457105 0.780111
vt 0.670848 0.780111
vt 0.670848 0.993855
vt 0.457105 0.993855
vn 0.0000 -1.0000 0.0000
vn -1.0000 0.0000 0.0000
vn 0.0000 0.0000 1.0000
vn 0.0000 1.0000 0.0000
vn 1.0000 0.0000 0.0000
vn 0.2566 0.2566 -0.9318
vn 0.2178 0.6901 -0.6901
vn 0.2566 0.9318 -0.2566
vn 0.6901 0.6901 -0.2178
vn 0.9318 0.2566 -0.2566
vn 0.6901 0.2178 -0.6901
vn 0.5774 0.5774 -0.5774
vn 0.2566 -0.9318 -0.2566
vn 0.2178 -0.6901 -0.6901
vn 0.2566 -0.2566 -0.9318
vn 0.6901 -0.2178 -0.6901
vn 0.9318 -0.2566 -0.2566
vn 0.6901 -0.6901 -0.2178
vn 0.5774 -0.5774 -0.5774
vn 0.9318 0.2566 0.2566
vn 0.6901 0.6901 0.2178
vn 0.2566 0.9318 0.2566
vn 0.2178 0.6901 0.6901
vn 0.2566 0.2566 0.9318
vn 0.6901 0.2178 0.6901
vn 0.5774 0.5774 0.5774
vn 0.9318 -0.2566 0.2566
vn 0.6901 -0.2178 0.6901
vn 0.2566 -0.2566 0.9318
vn 0.2178 -0.6901 0.6901
vn 0.2566 -0.9318 0.2566
vn 0.6901 -0.6901 0.2178
vn 0.5774 -0.5774 0.5774
vn -0.2566 0.2566 -0.9318
vn -0.6901 0.2178 -0.6901
vn -0.9318 0.2566 -0.2566
vn -0.6901 0.6901 -0.2178
vn -0.2566 0.9318 -0.2566
vn -0.2178 0.6901 -0.6901
vn -0.5774 0.5774 -0.5774
vn -0.9318 -0.2566 -0.2566
vn -0.6901 -0.2178 -0.6901
vn -0.2566 -0.2566 -0.9318
vn -0.2178 -0.6901 -0.6901
vn -0.2566 -0.9318 -0.2566
vn -0.6901 -0.6901 -0.2178
vn -0.5774 -0.5774 -0.5774
vn -0.9318 0.2566 0.2566
vn -0.6901 0.2178 0.6901
vn -0.2566 0.2566 0.9318
vn -0.2178 0.6901 0.6901
vn -0.2566 0.9318 0.2566
vn -0.6901 0.6901 0.2178
vn -0.5774 0.5774 0.5774
vn -0.2566 -0.9318 0.2566
vn -0.2178 -0.6901 0.6901
vn -0.2566 -0.2566 0.9318
vn -0.6901 -0.2178 0.6901
vn -0.9318 -0.2566 0.2566
vn -0.6901 -0.6901 0.2178
vn -0.5774 -0.5774 0.5774
vn -0.2585 -0.9660 0.0000
vn -0.7071 -0.7071 0.0000
vn -0.9660 -0.2585 0.0000
vn 0.0000 -0.9660 -0.2585
vn 0.0000 -0.7071 -0.7071
vn 0.0000 -0.2585 -0.9660
vn 0.9660 0.0000 -0.2585
vn 0.7071 0.0000 -0.7071
vn 0.2585 0.0000 -0.9660
vn -0.2585 0.0000 0.9660
vn -0.7071 0.0000 0.7071
vn -0.9660 0.0000 0.2585
vn 0.2585 0.0000 0.9660
vn 0.7071 0.0000 0.7071
vn 0.9660 0.0000 0.2585
vn -0.2585 0.0000 -0.9660
vn -0.7071 0.0000 -0.7071
vn -0.9660 0.0000 -0.2585
vn 0.0000 0.9660 0.2585
vn 0.0000 0.7071 0.7071
vn 0.0000 0.2585 0.9660
vn 0.2585 0.9660 0.0000
vn 0.7071 0.7071 0.0000
vn 0.9660 0.2585 0.0000
vn 0.0000 -0.9660 0.2585
vn 0.0000 -0.7071 0.7071
vn 0.0000 -0.2585 0.9660
vn -0.2585 0.9660 0.0000
vn -0.7071 0.7071 0.0000
vn -0.9660 0.2585 0.0000
vn 0.0000 0.9660 -0.2585
vn 0.0000 0.7071 -0.7071
vn 0.0000 0.2585 -0.9660
vn 0.2585 -0.9660 0.0000
vn 0.7071 -0.7071 0.0000
vn 0.9660 -0.2585 0.0000
vn 0.0000 0.0000 -1.0000
usemtl Material
s off
f 63/1/1 13/2/1 39/3/1 85/4/1
f 87/5/2 73/6/2 50/7/2 61/8/2
f 38/9/3 27/10/3 74/11/3 86/12/3
f 2/13/4 51/14/4 75/15/4 26/16/4
f 15/17/5 3/18/5 25/19/5 37/20/5
f 1/21/6 4/22/6 6/23/6 5/24/6
f 4/22/7 8/25/7 9/26/7 6/23/7
f 2/27/8 7/28/8 9/29/8 8/30/8
f 7/28/9 11/31/9 12/32/9 9/29/9
f 3/33/10 10/34/10 12/35/10 11/36/10
f 10/34/11 5/37/11 6/38/11 12/35/11
f 6/23/12 9/26/12 12/39/12
f 13/40/13 16/41/13 18/42/13 17/43/13
f 16/41/14 20/44/14 21/45/14 18/42/14
f 14/46/15 19/47/15 21/48/15 20/49/15
f 19/47/16 23/50/16 24/51/16 21/48/16
f 15/52/17 22/53/17 24/54/17 23/55/17
f 22/53/18 17/56/18 18/57/18 24/54/18
f 18/42/19 21/45/19 24/58/19
f 25/59/20 28/60/20 30/61/20 29/62/20
f 28/60/21 32/63/21 33/64/21 30/61/21
f 26/65/22 31/66/22 33/67/22 32/68/22
f 31/66/23 35/69/23 36/70/23 33/67/23
f 27/71/24 34/72/24 36/73/24 35/74/24
f 34/72/25 29/75/25 30/76/25 36/73/25
f 30/61/26 33/64/26 36/77/26
f 37/78/27 40/79/27 42/80/27 41/81/27
f 40/79/28 44/82/28 45/83/28 42/80/28
f 38/84/29 43/85/29 45/86/29 44/87/29
f 43/85/30 47/88/30 48/89/30 45/86/30
f 39/90/31 46/91/31 48/92/31 47/93/31
f 46/91/32 41/94/32 42/95/32 48/92/32
f 42/80/33 45/83/33 48/96/33
f 49/97/34 52/98/34 54/99/34 53/100/34
f 52/98/35 56/101/35 57/102/35 54/99/35
f 50/103/36 55/104/36 57/105/36 56/106/36
f 55/104/37 59/107/37 60/108/37 57/105/37
f 51/109/38 58/110/38 60/111/38 59/112/38
f 58/110/39 53/113/39 54/114/39 60/111/39
f 54/99/40 57/102/40 60/115/40
f 61/116/41 64/117/41 66/118/41 65/119/41
f 64/117/42 68/120/42 69/121/42 66/118/42
f 62/122/43 67/123/43 69/124/43 68/125/43
f 67/123/44 71/126/44 72/127/44 69/124/44
f 63/128/45 70/129/45 72/130/45 71/131/45
f 70/129/46 65/132/46 66/133/46 72/130/46
f 66/118/47 69/121/47 72/134/47
f 73/135/48 76/136/48 78/137/48 77/138/48
f 76/136/49 80/139/49 81/140/49 78/137/49
f 74/141/50 79/142/50 81/140/50 80/139/50
f 79/142/51 83/143/51 84/144/51 81/140/51
f 75/145/52 82/146/52 84/147/52 83/148/52
f 82/146/53 77/149/53 78/150/53 84/147/53
f 78/137/54 81/151/54 84/152/54
f 85/153/55 88/154/55 90/155/55 89/156/55
f 88/154/56 92/157/56 93/158/56 90/155/56
f 86/159/57 91/160/57 93/161/57 92/162/57
f 91/160/58 95/163/58 96/164/58 93/161/58
f 87/165/59 94/166/59 96/164/59 95/163/59
f 94/166/60 89/167/60 90/168/60 96/164/60
f 90/155/61 93/158/61 96/169/61
f 63/128/62 85/153/62 89/156/62 70/129/62
f 70/129/63 89/156/63 94/170/63 65/132/63
f 65/119/64 94/166/64 87/165/64 61/116/64
f 13/40/65 63/128/65 71/131/65 16/41/65
f 16/41/66 71/131/66 67/171/66 20/44/66
f 20/49/67 67/123/67 62/122/67 14/46/67
f 3/33/68 15/52/68 23/55/68 10/34/68
f 10/34/69 23/55/69 19/172/69 5/37/69
f 5/24/70 19/47/70 14/46/70 1/21/70
f 86/159/71 74/141/71 80/139/71 91/160/71
f 91/160/72 80/139/72 76/136/72 95/163/72
f 95/163/73 76/136/73 73/135/73 87/165/73
f 27/71/74 38/84/74 44/87/74 34/72/74
f 34/72/75 44/87/75 40/173/75 29/75/75
f 29/62/76 40/79/76 37/78/76 25/59/76
f 49/97/77 62/122/77 68/125/77 52/98/77
f 52/98/78 68/125/78 64/174/78 56/101/78
f 56/106/79 64/117/79 61/116/79 50/103/79
f 26/65/80 75/145/80 83/148/80 31/66/80
f 31/66/81 83/148/81 79/175/81 35/69/81
f 35/74/82 79/142/82 74/141/82 27/71/82
f 2/27/83 26/65/83 32/68/83 7/28/83
f 7/28/84 32/68/84 28/176/84 11/31/84
f 11/36/85 28/60/85 25/59/85 3/33/85
f 85/153/86 39/90/86 47/93/86 88/154/86
f 88/154/87 47/93/87 43/177/87 92/157/87
f 92/162/88 43/85/88 38/84/88 86/159/88
f 75/145/89 51/109/89 59/112/89 82/146/89
f 82/146/90 59/112/90 55/178/90 77/149/90
f 77/138/91 55/104/91 50/103/91 73/135/91
f 51/109/92 2/27/92 8/30/92 58/110/92
f 58/110/93 8/30/93 4/179/93 53/113/93
f 53/100/94 4/22/94 1/21/94 49/97/94
f 39/90/95 13/40/95 17/43/95 46/91/95
f 46/91/96 17/43/96 22/180/96 41/94/96
f 41/81/97 22/53/97 15/52/97 37/78/97
f 62/181/98 49/182/98 1/183/98 14/184/98
